<?xml version="1.0" encoding="UTF-8"?>
<svg id="Layer_1" data-name="Layer 1" xmlns="http://www.w3.org/2000/svg" viewBox="0 0 515 555">
  <defs>
    <style>
      .cls-1 {
        fill: #c1272d;
      }

      .cls-1, .cls-2 {
        stroke-width: 0px;
      }

      .cls-1, .cls-2, .cls-3 {
        fill-rule: evenodd;
      }

      .cls-3 {
        stroke: #000;
        stroke-miterlimit: 10;
      }
    </style>
  </defs>
  <path class="cls-2" d="M219.77,238.22l-17.98,31.13c-25.84,44.75-51.67,89.49-77.51,134.24H44.9l-19.84,34.37h119.07l87.42-151.42,8.05-13.95-19.83-34.37Z"/>
  <polygon class="cls-1" points="172.02 252.17 199.92 203.85 180.07 169.47 142.26 234.98 64.75 369.23 104.43 369.23 172.02 252.17"/>
  <path class="cls-3" d="M335.07,300.49l-17.97-31.13h0c-25.84-44.76-51.67-89.51-77.51-134.26l39.69-68.74-19.84-34.36-59.53,103.12,87.43,151.42,8.05,13.95h39.68Z"/>
  <path class="cls-2" d="M434.29,334.85h-190.95l-19.85,34.37h190.97l39.68,68.74h39.68l-59.53-103.11Z"/>
  <polygon class="cls-1" points="346.87 252.17 374.77 300.49 414.45 300.49 376.63 234.98 299.14 100.74 279.29 135.12 346.87 252.17"/>
  <polygon class="cls-1" points="318.45 382.59 318.45 382.59 262.65 382.59 242.82 416.96 318.45 416.96 473.45 416.96 453.61 382.59 318.45 382.59"/>
</svg>